<?xml version="1.0" encoding="utf-8"?>
<!-- Generator: Adobe Illustrator 27.9.0, SVG Export Plug-In . SVG Version: 6.00 Build 0)  -->
<svg version="1.1" id="Layer_1" xmlns="http://www.w3.org/2000/svg" xmlns:xlink="http://www.w3.org/1999/xlink" x="0px" y="0px"
	 viewBox="0 0 419.53 297.64" style="enable-background:new 0 0 419.53 297.64;" xml:space="preserve">
<style type="text/css">
	.st0{fill:none;}
	.st1{fill:#FFFFFF;}
</style>
<g>
	<path class="st0" d="M236.37,107.09c5,1.2,12.26-1.33,15.1-5.65c-9.05-1.82-17.87-3.6-26.74-5.38
		C225.36,99.33,230.98,105.79,236.37,107.09z"/>
	<path d="M271.15,85.6c-0.18-3.17-0.64-6.29-2.29-9.07c-2.9-4.87-7.38-6.99-12.64-7.86c-6.44-1.06-12.87-1.06-19.3,0.01
		c-0.46,0.08-0.87,0.41-1.3,0.62c0.21,0.45,0.31,1.06,0.66,1.32c2.17,1.62,4.27,3.45,6.65,4.63c2.27,1.12,4.87,1.54,7.32,2.27
		c-1.42,0.42-2.9,0.61-4.39,0.69c-4.02,0.22-7.82-0.56-11.14-3.05c-3.29-2.47-6.54-5.02-9.81-7.52c-5.03-3.83-10.56-5.92-16.92-5.69
		c-5.25,0.19-8.81,2.77-11.19,7.41c-1.95,3.79-2.69,7.91-3.18,12.11c-0.13,1.14,0.28,1.5,1.35,1.46c3.29-0.12,6.37,0.8,9.23,2.38
		c6.42,3.53,8.93,9.71,10.03,16.63c1.31,8.24,0.73,16.47-0.71,24.65c-0.11,0.6-0.08,1.22-0.11,1.83c0.13,0.04,0.25,0.08,0.38,0.12
		c0.25-0.31,0.46-0.67,0.75-0.93c1.62-1.5,3.11-3.24,4.94-4.39c3.17-1.98,7.11-0.72,8.64,2.75c0.89,2.02,1.42,4.28,1.71,6.48
		c0.48,3.59,0.58,7.23,0.94,10.84c0.24,2.48,1.27,3.12,3.64,2.53c4.03-1,7.42-3.24,10.41-6.06c6.57-6.21,12.27-13.21,16.89-21.09
		C267.66,108.52,271.83,97.78,271.15,85.6z M221.62,87.15c-1.3-0.96-1.49-2.58-0.49-4.04c1.06-1.55,3.12-1.94,4.57-0.87
		c1.64,1.21,2.02,2.81,1.02,4.21C224.28,83.83,222.96,84.01,221.62,87.15z M236.37,107.09c-5.4-1.3-11.01-7.76-11.64-11.04
		c8.87,1.79,17.69,3.56,26.74,5.38C248.63,105.76,241.38,108.3,236.37,107.09z M256.79,93.05c-0.26-1.13-0.17-2.66-0.86-3.25
		c-0.72-0.62-2.17-0.34-3.43-0.47c0.2-1.52,1.6-2.91,3.21-2.87c1.59,0.04,2.95,1.39,3.14,3.1
		C259.07,91.47,258.25,92.69,256.79,93.05z"/>
	<path class="st1" d="M255.72,86.47c-1.62-0.04-3.02,1.35-3.21,2.87c1.26,0.13,2.71-0.15,3.43,0.47c0.68,0.58,0.6,2.12,0.86,3.25
		c1.46-0.37,2.28-1.58,2.07-3.48C258.67,87.86,257.31,86.51,255.72,86.47z"/>
</g>
<g>
	<path d="M207.85,96.14c-3.05-7.13-11.67-11.19-18.82-5.92c-3.01,2.22-5.77,4.82-8.55,7.36c-2.78,2.53-5.78,4.54-9.58,4.74
		c-1.27,0.07-2.57-0.26-3.85-0.41c-0.01-0.21-0.02-0.42-0.03-0.63c4.03-1.33,7.84-3.01,10.44-7.37c-1.65,0.13-2.85,0.19-4.05,0.34
		c-5.5,0.67-10.71,2.21-15.04,5.94c-2.97,2.55-4.76,5.74-4.67,9.98c0.08,4.22,1.52,7.94,3.5,11.45c3.83,6.79,8.72,12.73,14.53,17.76
		c2.79,2.41,5.9,4.47,9.03,6.41c1.81,1.12,2.96,0.04,2.93-2.17c-0.03-1.93,0-3.89,0.29-5.79c0.6-3.93,3.75-5.6,7.41-4.34
		c3.78,1.3,6.74,3.87,9.77,6.34c1.5,1.23,2.7,1.2,3.69-0.48c0.89-1.51,1.63-3.17,2.14-4.86c2.49-8.26,3.39-16.78,3.27-25.39
		C210.19,104.67,209.62,100.28,207.85,96.14z M168.59,114.45c-1.28-0.16-2.37-1.22-2.57-2.51c-0.16-1.04,0.96-3.28,1.92-3.67
		c1.34-0.55,2.57-0.5,3.54,1.03C168.33,110.16,167.88,110.99,168.59,114.45z M186.45,119.36c-3.53,2.29-7.02,0.68-10.48-0.3
		c-0.04-0.21-0.09-0.41-0.13-0.62c4.74-1.85,9.49-3.69,14.48-5.63C189.98,115.87,188.61,117.96,186.45,119.36z M193.69,105.48
		c-1.3-2.84-2.54-4.2-5.49-1.34c-0.47-1.71,0-2.91,1.43-3.62c1.58-0.79,3.26-0.39,4.23,0.99
		C194.66,102.66,194.59,104.47,193.69,105.48z"/>
</g>
<g>
	<path d="M127.77,149.65h2.89l6.96,18h-2.92l-1.28-3.43h-8.47l-1.28,3.43h-2.83L127.77,149.65z M132.41,161.52l-3.24-8.37
		l-3.25,8.37H132.41z"/>
	<path d="M137.45,154.13h2.89l3.78,10.28l3.8-10.28h2.82l-5.18,13.63h-2.94L137.45,154.13z"/>
	<path d="M156.13,167.89c-0.97,0-1.75-0.11-2.37-0.33c-0.62-0.22-1.1-0.51-1.45-0.88c-0.35-0.37-0.59-0.8-0.72-1.3
		c-0.13-0.5-0.2-1.04-0.2-1.62c0-0.97,0.14-1.77,0.43-2.4c0.29-0.63,0.76-1.14,1.42-1.52c0.66-0.38,1.54-0.64,2.63-0.8
		c1.09-0.15,2.44-0.23,4.04-0.23h0.65c-0.02-0.4-0.06-0.75-0.14-1.05c-0.08-0.3-0.23-0.54-0.44-0.74c-0.22-0.19-0.52-0.34-0.91-0.43
		c-0.39-0.1-0.91-0.14-1.56-0.14c-0.81,0-1.54,0.12-2.19,0.37c-0.65,0.25-1.18,0.5-1.59,0.76l-1.42-2.2
		c0.22-0.16,0.51-0.33,0.89-0.51c0.37-0.18,0.8-0.35,1.27-0.51c0.47-0.16,1-0.29,1.56-0.4c0.57-0.1,1.16-0.16,1.76-0.16
		c1.14,0,2.06,0.1,2.77,0.3c0.71,0.2,1.26,0.52,1.65,0.95c0.39,0.44,0.65,0.99,0.78,1.68c0.13,0.68,0.2,1.51,0.2,2.47v4.54
		c0,0.31,0.01,0.55,0.03,0.74c0.02,0.19,0.07,0.33,0.15,0.43c0.08,0.11,0.2,0.17,0.37,0.21c0.17,0.03,0.4,0.05,0.68,0.05v2.44
		c-0.09,0.03-0.23,0.05-0.41,0.05c-0.18,0-0.42,0-0.71,0c-0.67,0-1.18-0.09-1.53-0.28c-0.35-0.19-0.61-0.56-0.78-1.12
		c-0.37,0.52-0.94,0.91-1.69,1.2C158.54,167.75,157.48,167.89,156.13,167.89z M156.6,165.47c1.4,0,2.41-0.29,3.04-0.87
		c0.62-0.58,0.93-1.5,0.93-2.77v-0.7h-0.49c-1.29,0-2.33,0.04-3.13,0.12c-0.79,0.08-1.41,0.22-1.86,0.41
		c-0.44,0.19-0.74,0.44-0.9,0.75c-0.16,0.31-0.23,0.68-0.23,1.13c0,0.32,0.04,0.6,0.12,0.83c0.08,0.23,0.22,0.44,0.42,0.6
		c0.2,0.17,0.47,0.29,0.82,0.37C155.66,165.43,156.08,165.47,156.6,165.47z"/>
	<path d="M166.96,154.3l2.12-0.17l0.23,1.18c0.16-0.19,0.36-0.38,0.61-0.57c0.25-0.19,0.56-0.35,0.93-0.48
		c0.37-0.14,0.82-0.24,1.35-0.33c0.53-0.08,1.16-0.12,1.89-0.12c1.01,0,1.82,0.14,2.44,0.41c0.61,0.27,1.09,0.66,1.42,1.15
		c0.33,0.49,0.56,1.08,0.66,1.77c0.11,0.69,0.16,1.46,0.16,2.29v8.2h-2.71V160c0-0.5-0.02-0.95-0.07-1.36
		c-0.05-0.41-0.17-0.76-0.36-1.06c-0.2-0.3-0.49-0.53-0.88-0.7c-0.39-0.17-0.92-0.25-1.59-0.25c-0.75,0-1.35,0.09-1.81,0.26
		c-0.46,0.18-0.81,0.43-1.06,0.75c-0.25,0.32-0.42,0.7-0.5,1.15c-0.09,0.44-0.13,0.93-0.13,1.46v7.41h-2.73V154.3z"/>
	<path d="M187.37,162.72c-0.78,0-1.46-0.05-2.03-0.14c-0.16,0.21-0.23,0.43-0.23,0.68c0,0.19,0.03,0.35,0.1,0.46
		c0.07,0.11,0.2,0.2,0.38,0.27c0.19,0.07,0.44,0.11,0.75,0.13c0.31,0.02,0.72,0.04,1.21,0.04c1.26,0,2.31,0.06,3.14,0.17
		c0.83,0.11,1.5,0.31,2.01,0.58c0.51,0.27,0.86,0.64,1.06,1.11c0.2,0.47,0.3,1.05,0.3,1.76c0,0.76-0.13,1.4-0.39,1.93
		c-0.26,0.53-0.66,0.97-1.2,1.3c-0.55,0.34-1.25,0.58-2.1,0.74c-0.86,0.15-1.88,0.23-3.08,0.23c-1.15,0-2.13-0.05-2.94-0.14
		c-0.81-0.1-1.47-0.27-1.98-0.51c-0.51-0.24-0.89-0.58-1.12-1.01c-0.23-0.44-0.35-0.99-0.35-1.67c0-0.77,0.19-1.43,0.58-1.98
		c0.39-0.55,1.07-0.92,2.03-1.13c-0.31-0.21-0.53-0.47-0.64-0.78c-0.12-0.31-0.17-0.66-0.17-1.03c0-0.32,0.05-0.65,0.14-0.98
		c0.09-0.33,0.23-0.63,0.4-0.9c-1.06-0.71-1.59-1.86-1.59-3.45c0-1.48,0.45-2.61,1.34-3.38c0.9-0.77,2.35-1.16,4.38-1.16h0.33
		l5.84-0.96v2.32h-2.03c0.51,0.29,0.91,0.68,1.19,1.18s0.42,1.17,0.42,2c0,1.51-0.45,2.61-1.37,3.31
		C190.84,162.38,189.38,162.72,187.37,162.72z M187.39,169.79c0.79,0,1.44-0.04,1.95-0.12c0.5-0.08,0.91-0.2,1.2-0.36
		c0.3-0.16,0.5-0.36,0.61-0.59c0.11-0.23,0.16-0.5,0.16-0.81c0-0.31-0.07-0.56-0.2-0.75c-0.13-0.19-0.35-0.35-0.65-0.46
		c-0.3-0.11-0.71-0.19-1.2-0.23c-0.5-0.04-1.12-0.06-1.87-0.06c-0.84,0-1.51,0.04-2,0.13c-0.49,0.09-0.87,0.21-1.13,0.36
		c-0.26,0.15-0.44,0.33-0.51,0.54c-0.08,0.21-0.12,0.44-0.12,0.7c0,0.61,0.28,1.04,0.83,1.28S185.99,169.79,187.39,169.79z
		 M187.37,160.55c1.14,0,1.93-0.17,2.38-0.52c0.45-0.35,0.68-0.9,0.68-1.65c0-0.77-0.24-1.33-0.72-1.67
		c-0.48-0.34-1.26-0.51-2.33-0.51c-1.14,0-1.93,0.17-2.39,0.51c-0.46,0.34-0.69,0.89-0.69,1.67c0,0.76,0.23,1.31,0.69,1.65
		C185.43,160.38,186.23,160.55,187.37,160.55z"/>
	<path d="M200.07,167.89c-0.97,0-1.75-0.11-2.37-0.33c-0.62-0.22-1.1-0.51-1.45-0.88c-0.35-0.37-0.59-0.8-0.72-1.3
		c-0.13-0.5-0.2-1.04-0.2-1.62c0-0.97,0.14-1.77,0.43-2.4c0.29-0.63,0.76-1.14,1.42-1.52c0.66-0.38,1.54-0.64,2.63-0.8
		c1.09-0.15,2.44-0.23,4.04-0.23h0.65c-0.02-0.4-0.06-0.75-0.14-1.05c-0.08-0.3-0.23-0.54-0.44-0.74c-0.22-0.19-0.52-0.34-0.91-0.43
		c-0.39-0.1-0.91-0.14-1.56-0.14c-0.81,0-1.54,0.12-2.19,0.37c-0.65,0.25-1.18,0.5-1.59,0.76l-1.42-2.2
		c0.22-0.16,0.51-0.33,0.89-0.51c0.37-0.18,0.8-0.35,1.27-0.51c0.47-0.16,1-0.29,1.56-0.4c0.57-0.1,1.16-0.16,1.76-0.16
		c1.14,0,2.06,0.1,2.77,0.3c0.71,0.2,1.26,0.52,1.65,0.95c0.39,0.44,0.65,0.99,0.78,1.68c0.13,0.68,0.2,1.51,0.2,2.47v4.54
		c0,0.31,0.01,0.55,0.03,0.74c0.02,0.19,0.07,0.33,0.15,0.43c0.08,0.11,0.2,0.17,0.37,0.21c0.17,0.03,0.4,0.05,0.68,0.05v2.44
		c-0.09,0.03-0.23,0.05-0.41,0.05c-0.18,0-0.42,0-0.71,0c-0.67,0-1.18-0.09-1.53-0.28c-0.35-0.19-0.61-0.56-0.78-1.12
		c-0.37,0.52-0.94,0.91-1.69,1.2C202.48,167.75,201.42,167.89,200.07,167.89z M200.54,165.47c1.4,0,2.41-0.29,3.04-0.87
		c0.62-0.58,0.93-1.5,0.93-2.77v-0.7h-0.49c-1.29,0-2.33,0.04-3.13,0.12c-0.79,0.08-1.41,0.22-1.86,0.41
		c-0.44,0.19-0.74,0.44-0.9,0.75c-0.16,0.31-0.23,0.68-0.23,1.13c0,0.32,0.04,0.6,0.12,0.83c0.08,0.23,0.22,0.44,0.42,0.6
		c0.2,0.17,0.47,0.29,0.82,0.37C199.59,165.43,200.02,165.47,200.54,165.47z"/>
	<path d="M210.9,154.3l2.12-0.17l0.28,1.54c0.26-0.47,0.77-0.86,1.53-1.17c0.75-0.31,1.69-0.49,2.81-0.52v2.82
		c-0.78,0-1.43,0.1-1.95,0.29c-0.52,0.19-0.93,0.46-1.24,0.8c-0.3,0.34-0.52,0.74-0.64,1.22s-0.19,1-0.19,1.58v6.95h-2.73V154.3z"/>
	<path d="M224.47,167.89c-1.11,0-2.02-0.18-2.74-0.53c-0.72-0.35-1.3-0.85-1.73-1.48c-0.43-0.63-0.73-1.38-0.9-2.24
		c-0.17-0.86-0.26-1.8-0.26-2.81c0-1,0.09-1.92,0.27-2.78c0.18-0.85,0.48-1.59,0.91-2.21c0.43-0.62,1.01-1.11,1.75-1.46
		c0.74-0.35,1.67-0.53,2.79-0.53c0.65,0,1.23,0.03,1.72,0.1c0.49,0.07,0.91,0.16,1.27,0.29s0.65,0.28,0.89,0.46
		c0.23,0.18,0.43,0.39,0.58,0.63v-6.39h2.73v18.6l-2.08,0.22l-0.3-1.45c-0.4,0.53-0.98,0.93-1.74,1.19
		C226.88,167.75,225.82,167.89,224.47,167.89z M225.07,165.33c0.72,0,1.33-0.09,1.83-0.25c0.51-0.17,0.91-0.43,1.23-0.8
		c0.31-0.36,0.54-0.83,0.68-1.4c0.14-0.57,0.21-1.26,0.21-2.06c0-0.79-0.07-1.46-0.2-2c-0.13-0.55-0.35-0.99-0.65-1.34
		c-0.3-0.35-0.71-0.59-1.21-0.75c-0.51-0.15-1.13-0.23-1.88-0.23c-0.7,0-1.28,0.1-1.73,0.3c-0.45,0.2-0.81,0.49-1.06,0.87
		c-0.26,0.38-0.44,0.83-0.54,1.36c-0.1,0.53-0.15,1.12-0.15,1.79c0,0.68,0.05,1.29,0.15,1.83c0.1,0.55,0.28,1.02,0.54,1.42
		c0.26,0.4,0.61,0.71,1.06,0.93C223.8,165.22,224.37,165.33,225.07,165.33z"/>
	<path d="M240.88,167.91c-1.37,0-2.48-0.19-3.33-0.56c-0.85-0.37-1.51-0.87-1.98-1.51c-0.47-0.63-0.8-1.38-0.97-2.24
		c-0.17-0.86-0.26-1.77-0.26-2.74s0.09-1.87,0.27-2.73c0.18-0.85,0.5-1.6,0.98-2.23c0.47-0.63,1.13-1.14,1.97-1.52
		c0.84-0.38,1.93-0.57,3.27-0.57c0.92,0,1.7,0.1,2.33,0.31c0.64,0.21,1.17,0.5,1.59,0.87c0.42,0.37,0.75,0.81,0.98,1.33
		c0.23,0.51,0.4,1.08,0.51,1.69c0.11,0.61,0.17,1.26,0.19,1.94c0.02,0.68,0.02,1.38,0,2.09h-9.45c0.05,0.53,0.14,1.01,0.27,1.44
		c0.13,0.43,0.35,0.79,0.64,1.09c0.3,0.3,0.68,0.53,1.17,0.69c0.48,0.16,1.09,0.24,1.82,0.24c0.51,0,0.97-0.03,1.38-0.1
		c0.4-0.07,0.77-0.16,1.09-0.28c0.32-0.12,0.61-0.26,0.88-0.41c0.26-0.15,0.52-0.33,0.77-0.52l1.45,1.95
		c-0.75,0.6-1.55,1.04-2.4,1.33C243.18,167.77,242.13,167.91,240.88,167.91z M240.76,156.31c-0.69,0-1.25,0.08-1.71,0.23
		c-0.45,0.15-0.83,0.37-1.12,0.66c-0.3,0.29-0.52,0.64-0.66,1.05c-0.15,0.41-0.25,0.86-0.29,1.36h6.89
		c-0.03-0.48-0.08-0.93-0.14-1.33c-0.06-0.4-0.2-0.75-0.41-1.05c-0.21-0.3-0.51-0.53-0.91-0.69
		C242.01,156.38,241.46,156.31,240.76,156.31z"/>
</g>
<g>
	<path d="M210.6,188.79c0-1.78,0.47-3.53,1.42-5.24c0.94-1.71,2.41-3.16,4.38-4.33c-0.09,0.03-0.25,0.06-0.48,0.09
		c-0.23,0.03-0.45,0.05-0.66,0.05c-0.93,0-1.71-0.23-2.34-0.7c-0.63-0.46-1.11-1.09-1.43-1.87c-0.32-0.78-0.48-1.65-0.48-2.61
		c0-1.32,0.33-2.69,0.99-4.11c0.66-1.42,1.67-2.72,3.04-3.88c1.12-0.96,2.5-1.73,4.13-2.31c1.63-0.58,3.53-0.87,5.7-0.87
		c3.13,0,5.68,0.7,7.64,2.1c1.96,1.4,3.32,3.34,4.07,5.8c0.45,1.47,0.67,3.09,0.67,4.86c0,1.12-0.09,2.29-0.27,3.53
		c2.44,1.07,4.3,2.6,5.55,4.58c-1.36-1.35-3.28-2.49-5.76-3.42c-1.11,5.07-3.48,9.15-7.11,12.25c-1.5,1.25-3.17,2.23-5.01,2.92
		c-1.84,0.69-3.82,1.04-5.94,1.04c-2.34,0-4.27-0.65-5.78-1.95c-0.73-0.65-1.31-1.47-1.72-2.46
		C210.8,191.24,210.6,190.09,210.6,188.79z M224.94,178.47c-0.37,1.24-0.79,2.5-1.24,3.79c-0.66,1.81-1.27,3.47-1.84,4.97
		c-0.35,0.92-0.64,1.7-0.88,2.35c-0.58,1.43-1.48,2.21-2.68,2.35c-0.12,0.02-0.23,0.02-0.34,0.02c-1.05,0-2.01-0.51-2.88-1.53
		c0.1-0.29,0.32-0.85,0.65-1.67c0.42-1.07,0.93-2.4,1.53-4c0.58-1.6,1.17-3.28,1.75-5.04c-1.18,0.57-2.18,1.25-2.99,2.04
		c-1.02,1.01-1.78,2.09-2.27,3.24c-0.5,1.15-0.74,2.24-0.74,3.26c0,2.08,0.58,3.61,1.73,4.6c1,0.88,2.34,1.33,4,1.33
		c1.35,0,2.77-0.36,4.26-1.07c1.49-0.71,2.88-1.79,4.17-3.23c1.11-1.25,2.05-2.8,2.81-4.62c0.73-1.75,1.21-3.76,1.44-6.04
		C229.37,178.71,227.21,178.47,224.94,178.47z M219.61,177.84c0.33-1.08,0.62-2.13,0.85-3.14c0.36-1.49,0.54-2.72,0.54-3.7v-0.12
		c-0.03-1.01-0.37-1.51-1.04-1.51c0.9-0.54,1.8-0.81,2.7-0.81c0.93,0,1.64,0.23,2.14,0.69c0.49,0.46,0.83,1,1.01,1.64
		c0.18,0.64,0.27,1.22,0.27,1.77c0,1.13-0.23,2.56-0.7,4.28l-0.05,0.14h0.23c1.87,0,3.85,0.23,5.94,0.67l0.02-0.77
		c0-1.27-0.1-2.5-0.29-3.7c-0.21-1.43-0.61-2.72-1.19-3.87c-0.58-1.15-1.4-2.08-2.45-2.77c-1.05-0.69-2.4-1.03-4.05-1.03
		c-1.14,0-2.18,0.21-3.11,0.63c-0.94,0.42-1.76,0.98-2.46,1.67c-1.65,1.75-2.47,3.7-2.47,5.86c0,0.99,0.15,1.83,0.44,2.52
		c0.29,0.69,0.6,1.23,0.91,1.61s0.53,0.62,0.65,0.7c0,0.02,0.01,0.03,0.02,0.05C218.17,178.33,218.86,178.06,219.61,177.84z"/>
	<path d="M251.41,180.86c0,0.99-0.25,1.98-0.76,2.98c-0.44,0.85-1.01,1.57-1.71,2.16c-0.87,0.74-1.84,1.12-2.92,1.12
		c-0.67,0-1.27-0.28-1.78-0.84c-0.31,1.63-0.47,2.75-0.47,3.37c0,0.93,0.1,1.66,0.32,2.18c0.36,0.79,0.86,1.19,1.51,1.19
		c0.96,0,1.86-0.31,2.7-0.93c0.81-0.57,1.56-1.32,2.25-2.23c0.6-0.81,1.15-1.67,1.64-2.6c0.78-1.49,1.39-2.9,1.82-4.25
		c0,0.92-0.44,2.47-1.31,4.67c-0.45,1.07-1,2.14-1.64,3.21c-0.89,1.49-1.93,2.76-3.13,3.81c-1.29,1.15-2.71,1.75-4.27,1.81h-0.11
		c-1.47,0-2.74-0.57-3.82-1.7c-0.45-0.51-0.81-1.16-1.07-1.94c-0.26-0.78-0.39-1.71-0.39-2.8c0-1.24,0.26-2.99,0.79-5.25
		c0.43-1.72,1.03-3.34,1.8-4.86c0.43-0.84,0.97-1.55,1.62-2.14c0.99-0.96,2.26-1.44,3.8-1.44c1.12,0,2.18,0.29,3.17,0.86
		c0.58,0.37,1.06,0.86,1.43,1.46C251.23,179.3,251.41,180.02,251.41,180.86z M248.26,179.47v-0.09c0-0.64-0.14-0.95-0.41-0.95
		c-0.3,0-0.59,0.14-0.87,0.43c-0.28,0.29-0.54,0.68-0.8,1.17c-0.41,0.79-0.77,1.73-1.1,2.81c-0.25,0.85-0.48,1.7-0.67,2.56
		c0.3,0.25,0.58,0.37,0.85,0.37c0.52,0,1.01-0.34,1.46-1.02c0.45-0.65,0.79-1.4,1.04-2.25C248.1,181.19,248.26,180.18,248.26,179.47
		z"/>
	<path d="M264.21,181.02c-0.74,0.6-1.53,1.81-2.38,3.6c-0.35,0.71-0.68,1.44-1.01,2.18c-0.48,1.16-0.94,2.38-1.39,3.65
		c-0.75,2.09-1.31,3.87-1.69,5.34c-1,0.47-1.9,0.7-2.7,0.7c-1.1,0-1.97-0.37-2.63-1.11c-0.58-0.7-0.88-1.69-0.88-2.98
		c0-1.52,0.28-3.69,0.83-6.52c0.55-2.83,1.33-5.53,2.32-8.1c0.51-0.92,1.67-1.39,3.48-1.42c0.93,0,1.71,0.22,2.34,0.67
		c-0.88,1.55-1.75,3.84-2.61,6.86c-0.85,3.02-1.31,5.4-1.37,7.14c0.03,0.98,0.19,1.46,0.47,1.46c0.24-0.85,0.58-1.94,1.01-3.28
		c0.43-1.33,1.01-2.85,1.73-4.56c0.6-1.36,1.27-2.66,2.02-3.88c0.79-1.32,1.66-2.4,2.61-3.24s1.95-1.27,3.01-1.27
		c0.64,0,1.22,0.18,1.73,0.55c0.51,0.36,0.77,0.97,0.77,1.82c0,0.6-0.3,1.9-0.9,3.88c-1.17,4.03-1.75,7-1.75,8.9
		c0.03,0.71,0.22,1.07,0.56,1.07c0.37,0,0.84-0.39,1.4-1.16s1.14-1.7,1.72-2.79c0.58-1.08,1.11-2.14,1.58-3.16
		c0.47-1.02,0.81-1.82,1.02-2.39c0,0.29-0.16,0.95-0.47,1.95c-0.31,1.01-0.74,2.16-1.28,3.45c-0.54,1.29-1.16,2.55-1.87,3.78
		c-0.71,1.22-1.46,2.25-2.27,3.08s-1.63,1.24-2.47,1.24c-1.1,0-1.94-0.39-2.54-1.16c-0.58-0.74-0.88-1.72-0.88-2.93
		C261.73,189.79,262.56,186,264.21,181.02z"/>
	<path d="M275.04,173.68l0.27-0.93c1.02-3.75,1.78-6.38,2.27-7.9c1.14-0.5,2.26-0.74,3.37-0.74c0.5,0,0.94,0.06,1.33,0.19
		c0.39,0.12,0.69,0.32,0.9,0.58c-0.68,1.98-1.53,4.81-2.56,8.48l-0.16,0.56c1.24-0.06,2.43-0.21,3.55-0.44
		c-0.2,0.67-0.83,1.18-1.89,1.56c-0.66,0.25-1.37,0.45-2.14,0.6c-0.79,2.9-1.52,5.75-2.18,8.55c-0.84,3.56-1.26,5.98-1.26,7.25
		c0,0.25,0.03,0.49,0.09,0.72c0.06,0.23,0.21,0.35,0.45,0.35c0.51,0,1.08-0.39,1.72-1.16c0.64-0.77,1.27-1.7,1.9-2.79
		c0.63-1.08,1.18-2.14,1.66-3.16c0.48-1.02,0.82-1.82,1.03-2.39c0,0.34-0.16,1.02-0.47,2.05s-0.75,2.17-1.32,3.45
		c-0.56,1.28-1.22,2.53-1.97,3.74c-0.75,1.22-1.57,2.23-2.45,3.04c-0.89,0.81-1.79,1.22-2.72,1.22c-0.95,0-1.66-0.23-2.16-0.69
		c-0.49-0.46-0.83-1-1.01-1.64c-0.18-0.64-0.27-1.22-0.27-1.77c0-1.53,0.46-4.26,1.37-8.18c0.61-2.66,1.26-5.29,1.93-7.88
		c-0.35,0.05-0.64,0.08-0.88,0.09c-0.44-0.26-0.68-0.73-0.74-1.39c-0.02-0.19-0.02-0.36-0.02-0.53c0-0.43,0.07-0.82,0.2-1.16
		C273.64,173.48,274.35,173.59,275.04,173.68z"/>
</g>
</svg>
